<svg id="whatsapp-svgrepo-com_3_" data-name="whatsapp-svgrepo-com (3)" xmlns="http://www.w3.org/2000/svg" width="114.075" height="115.007" viewBox="0 0 114.075 115.007">
  <path id="Path_11540" data-name="Path 11540" d="M39.815,107.738l1.865.933a48.714,48.714,0,0,0,25.177,6.838h0a49.672,49.672,0,0,0,35.124-84.856A49.456,49.456,0,0,0,17.435,66.087,50.976,50.976,0,0,0,24.895,92.2l1.243,1.865L21.165,112.4Z" transform="translate(-9.664 -8.895)" fill="#06344b"/>
  <path id="Path_11541" data-name="Path 11541" d="M97.6,16.785A55.956,55.956,0,0,0,57.5,0,56.777,56.777,0,0,0,.622,57.193a60.016,60.016,0,0,0,7.46,28.285L0,115.007l30.15-7.771a55.5,55.5,0,0,0,27.042,6.839h0c31.394,0,56.882-25.8,56.882-57.193A56.41,56.41,0,0,0,97.6,16.785ZM57.5,104.438h0A46.179,46.179,0,0,1,33.57,97.911L31.7,96.979l-18.028,4.662,4.662-17.717L17.1,82.059A47.029,47.029,0,0,1,32.326,17.1C54.706,3.419,83.613,9.947,97.29,32.326s7.149,51.287-15.231,64.963A45.316,45.316,0,0,1,57.5,104.438Zm27.353-34.5-3.419-1.554s-4.973-2.176-8.081-3.73c-.311,0-.622-.311-.933-.311a4.49,4.49,0,0,0-2.176.622h0s-.311.311-4.662,5.284a1.71,1.71,0,0,1-1.554.933H63.72a2.359,2.359,0,0,1-1.243-.622l-1.554-.622h0a30.226,30.226,0,0,1-9.014-5.906c-.622-.622-1.554-1.243-2.176-1.865a34.712,34.712,0,0,1-5.906-7.46l-.311-.622c-.311-.311-.311-.622-.622-1.243a2.33,2.33,0,0,1,.311-1.554s1.243-1.554,2.176-2.486c.622-.622.933-1.554,1.554-2.176a3.828,3.828,0,0,0,.622-3.108c-.311-1.554-4.041-9.947-4.973-11.812a3.6,3.6,0,0,0-2.176-1.554H36.989c-.622,0-1.243.311-1.865.311l-.311.311c-.622.311-1.243.932-1.865,1.243-.622.622-.933,1.243-1.554,1.865a15.851,15.851,0,0,0-3.419,9.636h0a18.438,18.438,0,0,0,1.554,7.149l.311.933A51.784,51.784,0,0,0,41.34,67.45l1.243,1.243A18.759,18.759,0,0,1,45.07,71.18,55.543,55.543,0,0,0,67.45,82.991c.933.311,2.176.311,3.108.622h3.108a11.527,11.527,0,0,0,4.663-1.243c.932-.622,1.554-.622,2.175-1.243l.622-.622c.622-.622,1.243-.932,1.865-1.554a8.249,8.249,0,0,0,1.554-1.865,17.828,17.828,0,0,0,1.243-4.351V70.558A3.843,3.843,0,0,0,84.856,69.937Z" fill="#fff"/>
</svg>
