<svg id="XMLID_13_" xmlns="http://www.w3.org/2000/svg" width="115.007" height="115.006" viewBox="0 0 115.007 115.006">
  <path id="XMLID_17_" d="M80.746,0H34.261A34.3,34.3,0,0,0,0,34.261V80.745a34.3,34.3,0,0,0,34.261,34.261H80.746a34.3,34.3,0,0,0,34.261-34.261V34.261A34.3,34.3,0,0,0,80.746,0Zm22.691,80.745a22.692,22.692,0,0,1-22.691,22.691H34.261A22.692,22.692,0,0,1,11.57,80.745V34.261A22.691,22.691,0,0,1,34.261,11.57H80.746a22.691,22.691,0,0,1,22.691,22.691V80.745Z" fill="#fff"/>
  <path id="XMLID_81_" d="M162.745,133a29.745,29.745,0,1,0,29.745,29.745A29.779,29.779,0,0,0,162.745,133Zm0,47.92a18.175,18.175,0,1,1,18.175-18.175A18.175,18.175,0,0,1,162.745,180.92Z" transform="translate(-105.241 -105.242)" fill="#fff"/>
  <ellipse id="XMLID_83_" cx="7.127" cy="7.127" rx="7.127" ry="7.127" transform="translate(80.178 20.855)" fill="#fff"/>
</svg>
