<svg id="whatsapp-svgrepo-com_3_" data-name="whatsapp-svgrepo-com (3)" xmlns="http://www.w3.org/2000/svg" width="43.509" height="43.864" viewBox="0 0 43.509 43.864">
  <path id="Path_11540" data-name="Path 11540" d="M25.969,51.016l.711.356a18.58,18.58,0,0,0,9.6,2.608h0a18.945,18.945,0,0,0,13.4-32.365A18.863,18.863,0,0,0,17.433,35.131a19.443,19.443,0,0,0,2.845,9.958l.474.711-1.9,6.995Z" transform="translate(-14.469 -13.317)" fill="#00e676"/>
  <path id="Path_11541" data-name="Path 11541" d="M37.225,6.4A21.342,21.342,0,0,0,21.932,0,21.655,21.655,0,0,0,.237,21.814,22.891,22.891,0,0,0,3.082,32.6L0,43.864,11.5,40.9a21.168,21.168,0,0,0,10.314,2.608h0A21.807,21.807,0,0,0,43.509,21.695,21.515,21.515,0,0,0,37.225,6.4ZM21.932,39.833h0A17.613,17.613,0,0,1,12.8,37.344l-.711-.356L5.216,38.766l1.778-6.757L6.52,31.3A18,18,0,1,1,31.3,37.107,17.284,17.284,0,0,1,21.932,39.833ZM32.365,26.674l-1.3-.593s-1.9-.83-3.082-1.423c-.119,0-.237-.119-.356-.119a1.712,1.712,0,0,0-.83.237h0s-.118.118-1.778,2.015a.652.652,0,0,1-.593.356H24.3a.9.9,0,0,1-.474-.237l-.593-.237h0A11.528,11.528,0,0,1,19.8,24.422c-.237-.237-.593-.474-.83-.711a13.239,13.239,0,0,1-2.252-2.845l-.119-.237c-.119-.119-.119-.237-.237-.474a.889.889,0,0,1,.119-.593s.474-.593.83-.948c.237-.237.356-.593.593-.83a1.46,1.46,0,0,0,.237-1.186,46.126,46.126,0,0,0-1.9-4.5,1.372,1.372,0,0,0-.83-.593h-1.3c-.237,0-.474.119-.711.119l-.119.119c-.237.119-.474.356-.711.474-.237.237-.356.474-.593.711a6.046,6.046,0,0,0-1.3,3.675h0a7.032,7.032,0,0,0,.593,2.727l.119.356a19.751,19.751,0,0,0,4.386,6.046l.474.474a7.155,7.155,0,0,1,.948.949,21.184,21.184,0,0,0,8.536,4.5c.356.118.83.118,1.186.237H28.1a4.4,4.4,0,0,0,1.778-.474c.356-.237.593-.237.83-.474l.237-.237c.237-.237.474-.356.711-.593a3.146,3.146,0,0,0,.593-.711,6.8,6.8,0,0,0,.474-1.66v-.83A1.466,1.466,0,0,0,32.365,26.674Z" fill="#fff"/>
</svg>
